<svg xmlns="http://www.w3.org/2000/svg" viewBox="0 0 15 15">
  <rect width="15" height="15" rx="3" fill="black" />
  <path
    d="M9.54545 6.09375C9.4858 5.88636 9.40199 5.70312 9.29403 5.54403C9.18608 5.3821 9.05398 5.24574 8.89773 5.13494C8.74432 5.02131 8.56818 4.93466 8.36932 4.875C8.1733 4.81534 7.95597 4.78551 7.71733 4.78551C7.27131 4.78551 6.87926 4.89631 6.54119 5.1179C6.20597 5.33949 5.9446 5.66193 5.7571 6.08523C5.5696 6.50568 5.47585 7.01989 5.47585 7.62784C5.47585 8.2358 5.56818 8.75284 5.75284 9.17898C5.9375 9.60511 6.19886 9.9304 6.53693 10.1548C6.875 10.3764 7.27415 10.4872 7.73438 10.4872C8.15199 10.4872 8.50852 10.4134 8.80398 10.2656C9.10227 10.1151 9.32955 9.90341 9.4858 9.63068C9.64489 9.35795 9.72443 9.03551 9.72443 8.66335L10.0994 8.71875H7.84943V7.32955H11.5014V8.42898C11.5014 9.19602 11.3395 9.85511 11.0156 10.4062C10.6918 10.9545 10.2457 11.3778 9.67756 11.6761C9.10938 11.9716 8.45881 12.1193 7.72585 12.1193C6.90767 12.1193 6.18892 11.9389 5.5696 11.5781C4.95028 11.2145 4.46733 10.6989 4.12074 10.0312C3.77699 9.3608 3.60511 8.56534 3.60511 7.64489C3.60511 6.9375 3.70739 6.30682 3.91193 5.75284C4.11932 5.19602 4.40909 4.72443 4.78125 4.33807C5.15341 3.9517 5.58665 3.65767 6.08097 3.45597C6.57528 3.25426 7.1108 3.15341 7.6875 3.15341C8.18182 3.15341 8.64205 3.22585 9.06818 3.37074C9.49432 3.51278 9.87216 3.71449 10.2017 3.97585C10.5341 4.23722 10.8054 4.5483 11.0156 4.90909C11.2259 5.26705 11.3608 5.66193 11.4205 6.09375H9.54545Z"
    fill="white"
  />
</svg>
